<mxfile host="app.diagrams.net" agent="Mozilla/5.0 (Windows NT 10.0; Win64; x64) AppleWebKit/537.36 (KHTML, like Gecko) Chrome/132.0.0.0 Safari/537.36" version="28.2.1">
  <diagram name="Page-1" id="XOptGc0j9pz9IJB4aON7">
    <mxGraphModel dx="786" dy="1620" grid="1" gridSize="10" guides="1" tooltips="1" connect="1" arrows="1" fold="1" page="1" pageScale="1" pageWidth="827" pageHeight="1169" math="0" shadow="0">
      <root>
        <mxCell id="0" />
        <mxCell id="1" parent="0" />
        <mxCell id="Dt6Bnb4k7eQnDZCNPbri-1" value="Start" style="strokeWidth=2;html=1;shape=mxgraph.flowchart.start_1;whiteSpace=wrap;" vertex="1" parent="1">
          <mxGeometry x="210" width="100" height="60" as="geometry" />
        </mxCell>
        <mxCell id="Dt6Bnb4k7eQnDZCNPbri-2" value="Initilize menu and&lt;div&gt;cart&lt;/div&gt;" style="rounded=1;whiteSpace=wrap;html=1;absoluteArcSize=1;arcSize=14;strokeWidth=2;" vertex="1" parent="1">
          <mxGeometry x="210" y="90" width="100" height="50" as="geometry" />
        </mxCell>
        <mxCell id="Dt6Bnb4k7eQnDZCNPbri-3" value="Display menu" style="rounded=1;whiteSpace=wrap;html=1;absoluteArcSize=1;arcSize=14;strokeWidth=2;" vertex="1" parent="1">
          <mxGeometry x="210" y="170" width="100" height="50" as="geometry" />
        </mxCell>
        <mxCell id="Dt6Bnb4k7eQnDZCNPbri-4" value="Get user Choice" style="strokeWidth=2;html=1;shape=mxgraph.flowchart.decision;whiteSpace=wrap;" vertex="1" parent="1">
          <mxGeometry x="210" y="250" width="100" height="100" as="geometry" />
        </mxCell>
        <mxCell id="Dt6Bnb4k7eQnDZCNPbri-5" value="Add item" style="rounded=1;whiteSpace=wrap;html=1;absoluteArcSize=1;arcSize=14;strokeWidth=2;" vertex="1" parent="1">
          <mxGeometry x="60" y="260" width="100" height="50" as="geometry" />
        </mxCell>
        <mxCell id="Dt6Bnb4k7eQnDZCNPbri-42" style="edgeStyle=orthogonalEdgeStyle;rounded=0;orthogonalLoop=1;jettySize=auto;html=1;" edge="1" parent="1" source="Dt6Bnb4k7eQnDZCNPbri-6">
          <mxGeometry relative="1" as="geometry">
            <mxPoint x="690" y="540" as="targetPoint" />
          </mxGeometry>
        </mxCell>
        <mxCell id="Dt6Bnb4k7eQnDZCNPbri-6" value="Checkout" style="rounded=1;whiteSpace=wrap;html=1;absoluteArcSize=1;arcSize=14;strokeWidth=2;" vertex="1" parent="1">
          <mxGeometry x="400" y="260" width="100" height="50" as="geometry" />
        </mxCell>
        <mxCell id="Dt6Bnb4k7eQnDZCNPbri-7" value="View Cart" style="rounded=1;whiteSpace=wrap;html=1;absoluteArcSize=1;arcSize=14;strokeWidth=2;" vertex="1" parent="1">
          <mxGeometry x="212.5" y="470" width="100" height="50" as="geometry" />
        </mxCell>
        <mxCell id="Dt6Bnb4k7eQnDZCNPbri-55" style="edgeStyle=orthogonalEdgeStyle;rounded=0;orthogonalLoop=1;jettySize=auto;html=1;exitX=0;exitY=0.5;exitDx=0;exitDy=0;exitPerimeter=0;entryX=0;entryY=0.5;entryDx=0;entryDy=0;" edge="1" parent="1" source="Dt6Bnb4k7eQnDZCNPbri-8" target="Dt6Bnb4k7eQnDZCNPbri-5">
          <mxGeometry relative="1" as="geometry">
            <Array as="points">
              <mxPoint x="20" y="430" />
              <mxPoint x="20" y="285" />
            </Array>
          </mxGeometry>
        </mxCell>
        <mxCell id="Dt6Bnb4k7eQnDZCNPbri-8" value="Is item in&amp;nbsp;&lt;div&gt;menu?&lt;/div&gt;" style="strokeWidth=2;html=1;shape=mxgraph.flowchart.decision;whiteSpace=wrap;" vertex="1" parent="1">
          <mxGeometry x="60" y="380" width="100" height="100" as="geometry" />
        </mxCell>
        <mxCell id="Dt6Bnb4k7eQnDZCNPbri-10" value="Add to cart&amp;nbsp;" style="rounded=1;whiteSpace=wrap;html=1;absoluteArcSize=1;arcSize=14;strokeWidth=2;" vertex="1" parent="1">
          <mxGeometry x="60" y="520" width="100" height="50" as="geometry" />
        </mxCell>
        <mxCell id="Dt6Bnb4k7eQnDZCNPbri-11" value="Get student discount" style="rounded=1;whiteSpace=wrap;html=1;absoluteArcSize=1;arcSize=14;strokeWidth=2;" vertex="1" parent="1">
          <mxGeometry x="210" y="560" width="100" height="50" as="geometry" />
        </mxCell>
        <mxCell id="Dt6Bnb4k7eQnDZCNPbri-40" style="edgeStyle=orthogonalEdgeStyle;rounded=0;orthogonalLoop=1;jettySize=auto;html=1;entryX=0;entryY=0.5;entryDx=0;entryDy=0;" edge="1" parent="1" source="Dt6Bnb4k7eQnDZCNPbri-12" target="Dt6Bnb4k7eQnDZCNPbri-13">
          <mxGeometry relative="1" as="geometry" />
        </mxCell>
        <mxCell id="Dt6Bnb4k7eQnDZCNPbri-48" style="edgeStyle=orthogonalEdgeStyle;rounded=0;orthogonalLoop=1;jettySize=auto;html=1;exitX=0.5;exitY=1;exitDx=0;exitDy=0;entryX=1;entryY=0.5;entryDx=0;entryDy=0;" edge="1" parent="1" source="Dt6Bnb4k7eQnDZCNPbri-12" target="Dt6Bnb4k7eQnDZCNPbri-14">
          <mxGeometry relative="1" as="geometry" />
        </mxCell>
        <mxCell id="Dt6Bnb4k7eQnDZCNPbri-12" value="Calculate meal discount" style="rounded=1;whiteSpace=wrap;html=1;absoluteArcSize=1;arcSize=14;strokeWidth=2;" vertex="1" parent="1">
          <mxGeometry x="364" y="720" width="106" height="50" as="geometry" />
        </mxCell>
        <mxCell id="Dt6Bnb4k7eQnDZCNPbri-41" style="edgeStyle=orthogonalEdgeStyle;rounded=0;orthogonalLoop=1;jettySize=auto;html=1;" edge="1" parent="1" source="Dt6Bnb4k7eQnDZCNPbri-13">
          <mxGeometry relative="1" as="geometry">
            <mxPoint x="690" y="610" as="targetPoint" />
          </mxGeometry>
        </mxCell>
        <mxCell id="Dt6Bnb4k7eQnDZCNPbri-13" value="Print receipt" style="rounded=1;whiteSpace=wrap;html=1;absoluteArcSize=1;arcSize=14;strokeWidth=2;" vertex="1" parent="1">
          <mxGeometry x="530" y="720" width="100" height="50" as="geometry" />
        </mxCell>
        <mxCell id="Dt6Bnb4k7eQnDZCNPbri-44" style="edgeStyle=orthogonalEdgeStyle;rounded=0;orthogonalLoop=1;jettySize=auto;html=1;exitX=0.5;exitY=1;exitDx=0;exitDy=0;entryX=0.5;entryY=0;entryDx=0;entryDy=0;" edge="1" parent="1" source="Dt6Bnb4k7eQnDZCNPbri-14" target="Dt6Bnb4k7eQnDZCNPbri-15">
          <mxGeometry relative="1" as="geometry" />
        </mxCell>
        <mxCell id="Dt6Bnb4k7eQnDZCNPbri-14" value="Calculate subtotal" style="rounded=1;whiteSpace=wrap;html=1;absoluteArcSize=1;arcSize=14;strokeWidth=2;" vertex="1" parent="1">
          <mxGeometry x="210" y="840" width="100" height="50" as="geometry" />
        </mxCell>
        <mxCell id="Dt6Bnb4k7eQnDZCNPbri-47" style="edgeStyle=orthogonalEdgeStyle;rounded=0;orthogonalLoop=1;jettySize=auto;html=1;entryX=0.5;entryY=1;entryDx=0;entryDy=0;" edge="1" parent="1" source="Dt6Bnb4k7eQnDZCNPbri-15" target="Dt6Bnb4k7eQnDZCNPbri-13">
          <mxGeometry relative="1" as="geometry" />
        </mxCell>
        <mxCell id="Dt6Bnb4k7eQnDZCNPbri-15" value="Calculate TAX" style="rounded=1;whiteSpace=wrap;html=1;absoluteArcSize=1;arcSize=14;strokeWidth=2;" vertex="1" parent="1">
          <mxGeometry x="210" y="920" width="100" height="50" as="geometry" />
        </mxCell>
        <mxCell id="Dt6Bnb4k7eQnDZCNPbri-16" value="End" style="strokeWidth=2;html=1;shape=mxgraph.flowchart.start_1;whiteSpace=wrap;" vertex="1" parent="1">
          <mxGeometry x="640" y="540" width="100" height="70" as="geometry" />
        </mxCell>
        <mxCell id="Dt6Bnb4k7eQnDZCNPbri-17" value="" style="endArrow=classic;html=1;rounded=0;exitX=0.5;exitY=1;exitDx=0;exitDy=0;exitPerimeter=0;entryX=0.5;entryY=0;entryDx=0;entryDy=0;" edge="1" parent="1" source="Dt6Bnb4k7eQnDZCNPbri-1" target="Dt6Bnb4k7eQnDZCNPbri-2">
          <mxGeometry width="50" height="50" relative="1" as="geometry">
            <mxPoint x="380" y="160" as="sourcePoint" />
            <mxPoint x="430" y="110" as="targetPoint" />
          </mxGeometry>
        </mxCell>
        <mxCell id="Dt6Bnb4k7eQnDZCNPbri-20" value="" style="endArrow=classic;html=1;rounded=0;exitX=0.5;exitY=1;exitDx=0;exitDy=0;" edge="1" parent="1" source="Dt6Bnb4k7eQnDZCNPbri-2" target="Dt6Bnb4k7eQnDZCNPbri-3">
          <mxGeometry width="50" height="50" relative="1" as="geometry">
            <mxPoint x="380" y="260" as="sourcePoint" />
            <mxPoint x="430" y="210" as="targetPoint" />
          </mxGeometry>
        </mxCell>
        <mxCell id="Dt6Bnb4k7eQnDZCNPbri-21" value="" style="endArrow=classic;html=1;rounded=0;exitX=0.5;exitY=1;exitDx=0;exitDy=0;" edge="1" parent="1" source="Dt6Bnb4k7eQnDZCNPbri-3" target="Dt6Bnb4k7eQnDZCNPbri-4">
          <mxGeometry width="50" height="50" relative="1" as="geometry">
            <mxPoint x="380" y="260" as="sourcePoint" />
            <mxPoint x="430" y="210" as="targetPoint" />
          </mxGeometry>
        </mxCell>
        <mxCell id="Dt6Bnb4k7eQnDZCNPbri-22" value="" style="endArrow=classic;html=1;rounded=0;exitX=1;exitY=0.5;exitDx=0;exitDy=0;entryX=0.5;entryY=0;entryDx=0;entryDy=0;" edge="1" parent="1" source="Dt6Bnb4k7eQnDZCNPbri-3" target="Dt6Bnb4k7eQnDZCNPbri-6">
          <mxGeometry width="50" height="50" relative="1" as="geometry">
            <mxPoint x="380" y="260" as="sourcePoint" />
            <mxPoint x="430" y="210" as="targetPoint" />
            <Array as="points">
              <mxPoint x="450" y="195" />
            </Array>
          </mxGeometry>
        </mxCell>
        <mxCell id="Dt6Bnb4k7eQnDZCNPbri-23" value="" style="endArrow=classic;html=1;rounded=0;exitX=0;exitY=0.5;exitDx=0;exitDy=0;entryX=0.407;entryY=0.047;entryDx=0;entryDy=0;entryPerimeter=0;" edge="1" parent="1" source="Dt6Bnb4k7eQnDZCNPbri-3" target="Dt6Bnb4k7eQnDZCNPbri-5">
          <mxGeometry width="50" height="50" relative="1" as="geometry">
            <mxPoint x="380" y="260" as="sourcePoint" />
            <mxPoint x="430" y="210" as="targetPoint" />
            <Array as="points">
              <mxPoint x="100" y="195" />
            </Array>
          </mxGeometry>
        </mxCell>
        <mxCell id="Dt6Bnb4k7eQnDZCNPbri-24" value="" style="endArrow=classic;html=1;rounded=0;exitX=0.5;exitY=1;exitDx=0;exitDy=0;" edge="1" parent="1" source="Dt6Bnb4k7eQnDZCNPbri-5" target="Dt6Bnb4k7eQnDZCNPbri-8">
          <mxGeometry width="50" height="50" relative="1" as="geometry">
            <mxPoint x="380" y="260" as="sourcePoint" />
            <mxPoint x="430" y="210" as="targetPoint" />
          </mxGeometry>
        </mxCell>
        <mxCell id="Dt6Bnb4k7eQnDZCNPbri-28" value="" style="endArrow=classic;html=1;rounded=0;exitX=0.5;exitY=1;exitDx=0;exitDy=0;exitPerimeter=0;" edge="1" parent="1" source="Dt6Bnb4k7eQnDZCNPbri-4" target="Dt6Bnb4k7eQnDZCNPbri-7">
          <mxGeometry width="50" height="50" relative="1" as="geometry">
            <mxPoint x="380" y="460" as="sourcePoint" />
            <mxPoint x="430" y="410" as="targetPoint" />
          </mxGeometry>
        </mxCell>
        <mxCell id="Dt6Bnb4k7eQnDZCNPbri-32" value="" style="endArrow=classic;html=1;rounded=0;exitX=0.5;exitY=1;exitDx=0;exitDy=0;exitPerimeter=0;entryX=0.5;entryY=0;entryDx=0;entryDy=0;" edge="1" parent="1" source="Dt6Bnb4k7eQnDZCNPbri-8" target="Dt6Bnb4k7eQnDZCNPbri-10">
          <mxGeometry width="50" height="50" relative="1" as="geometry">
            <mxPoint x="380" y="460" as="sourcePoint" />
            <mxPoint x="430" y="410" as="targetPoint" />
          </mxGeometry>
        </mxCell>
        <mxCell id="Dt6Bnb4k7eQnDZCNPbri-33" value="" style="endArrow=classic;html=1;rounded=0;exitX=0.933;exitY=0.02;exitDx=0;exitDy=0;entryX=0;entryY=0.5;entryDx=0;entryDy=0;exitPerimeter=0;" edge="1" parent="1" source="Dt6Bnb4k7eQnDZCNPbri-10" target="Dt6Bnb4k7eQnDZCNPbri-7">
          <mxGeometry width="50" height="50" relative="1" as="geometry">
            <mxPoint x="380" y="460" as="sourcePoint" />
            <mxPoint x="244" y="543.6999999999998" as="targetPoint" />
            <Array as="points">
              <mxPoint x="153" y="495" />
            </Array>
          </mxGeometry>
        </mxCell>
        <mxCell id="Dt6Bnb4k7eQnDZCNPbri-36" value="" style="endArrow=classic;html=1;rounded=0;exitX=0.5;exitY=1;exitDx=0;exitDy=0;entryX=0.5;entryY=0;entryDx=0;entryDy=0;" edge="1" parent="1" source="Dt6Bnb4k7eQnDZCNPbri-11" target="Dt6Bnb4k7eQnDZCNPbri-38">
          <mxGeometry width="50" height="50" relative="1" as="geometry">
            <mxPoint x="380" y="760" as="sourcePoint" />
            <mxPoint x="430" y="710" as="targetPoint" />
          </mxGeometry>
        </mxCell>
        <mxCell id="Dt6Bnb4k7eQnDZCNPbri-39" style="edgeStyle=orthogonalEdgeStyle;rounded=0;orthogonalLoop=1;jettySize=auto;html=1;exitX=1;exitY=0.5;exitDx=0;exitDy=0;entryX=0;entryY=0.5;entryDx=0;entryDy=0;" edge="1" parent="1" source="Dt6Bnb4k7eQnDZCNPbri-38" target="Dt6Bnb4k7eQnDZCNPbri-12">
          <mxGeometry relative="1" as="geometry" />
        </mxCell>
        <mxCell id="Dt6Bnb4k7eQnDZCNPbri-43" style="edgeStyle=orthogonalEdgeStyle;rounded=0;orthogonalLoop=1;jettySize=auto;html=1;exitX=0.5;exitY=1;exitDx=0;exitDy=0;" edge="1" parent="1" source="Dt6Bnb4k7eQnDZCNPbri-38" target="Dt6Bnb4k7eQnDZCNPbri-14">
          <mxGeometry relative="1" as="geometry" />
        </mxCell>
        <mxCell id="Dt6Bnb4k7eQnDZCNPbri-38" value="Food&amp;nbsp;&lt;div&gt;&amp;amp; Drink both&amp;nbsp;&lt;/div&gt;&lt;div&gt;are in cart&amp;nbsp;&lt;/div&gt;" style="rhombus;whiteSpace=wrap;html=1;" vertex="1" parent="1">
          <mxGeometry x="207.5" y="690" width="105" height="110" as="geometry" />
        </mxCell>
        <mxCell id="Dt6Bnb4k7eQnDZCNPbri-45" value="Yes" style="text;html=1;align=center;verticalAlign=middle;resizable=0;points=[];autosize=1;strokeColor=none;fillColor=none;" vertex="1" parent="1">
          <mxGeometry x="310" y="708" width="40" height="30" as="geometry" />
        </mxCell>
        <mxCell id="Dt6Bnb4k7eQnDZCNPbri-46" value="No" style="text;html=1;align=center;verticalAlign=middle;resizable=0;points=[];autosize=1;strokeColor=none;fillColor=none;" vertex="1" parent="1">
          <mxGeometry x="270" y="798" width="40" height="30" as="geometry" />
        </mxCell>
        <mxCell id="Dt6Bnb4k7eQnDZCNPbri-49" value="Yes" style="text;html=1;align=center;verticalAlign=middle;resizable=0;points=[];autosize=1;strokeColor=none;fillColor=none;" vertex="1" parent="1">
          <mxGeometry x="60" y="478" width="40" height="30" as="geometry" />
        </mxCell>
        <mxCell id="Dt6Bnb4k7eQnDZCNPbri-53" value="" style="endArrow=classic;html=1;rounded=0;entryX=0;entryY=0.5;entryDx=0;entryDy=0;exitX=0.88;exitY=0.337;exitDx=0;exitDy=0;exitPerimeter=0;" edge="1" parent="1" source="Dt6Bnb4k7eQnDZCNPbri-4" target="Dt6Bnb4k7eQnDZCNPbri-6">
          <mxGeometry width="50" height="50" relative="1" as="geometry">
            <mxPoint x="310" y="290" as="sourcePoint" />
            <mxPoint x="430" y="310" as="targetPoint" />
          </mxGeometry>
        </mxCell>
        <mxCell id="Dt6Bnb4k7eQnDZCNPbri-54" value="" style="endArrow=classic;html=1;rounded=0;exitX=0.18;exitY=0.343;exitDx=0;exitDy=0;exitPerimeter=0;entryX=1;entryY=0.5;entryDx=0;entryDy=0;" edge="1" parent="1" source="Dt6Bnb4k7eQnDZCNPbri-4" target="Dt6Bnb4k7eQnDZCNPbri-5">
          <mxGeometry width="50" height="50" relative="1" as="geometry">
            <mxPoint x="380" y="360" as="sourcePoint" />
            <mxPoint x="430" y="310" as="targetPoint" />
          </mxGeometry>
        </mxCell>
        <mxCell id="Dt6Bnb4k7eQnDZCNPbri-56" value="NO" style="text;html=1;align=center;verticalAlign=middle;resizable=0;points=[];autosize=1;strokeColor=none;fillColor=none;" vertex="1" parent="1">
          <mxGeometry x="20" y="400" width="40" height="30" as="geometry" />
        </mxCell>
        <mxCell id="Dt6Bnb4k7eQnDZCNPbri-59" value="" style="endArrow=classic;html=1;rounded=0;exitX=0.5;exitY=1;exitDx=0;exitDy=0;entryX=0.5;entryY=0;entryDx=0;entryDy=0;" edge="1" parent="1" source="Dt6Bnb4k7eQnDZCNPbri-7" target="Dt6Bnb4k7eQnDZCNPbri-11">
          <mxGeometry width="50" height="50" relative="1" as="geometry">
            <mxPoint x="380" y="560" as="sourcePoint" />
            <mxPoint x="430" y="510" as="targetPoint" />
          </mxGeometry>
        </mxCell>
      </root>
    </mxGraphModel>
  </diagram>
</mxfile>
